<mxfile host="app.diagrams.net" modified="2023-12-17T18:07:32.507Z" agent="Mozilla/5.0 (Windows NT 10.0; Win64; x64) AppleWebKit/537.36 (KHTML, like Gecko) Chrome/120.0.0.0 Safari/537.36" version="22.1.11" etag="jYDOUmWIip09-IoQ2owL" type="device">
  <diagram id="5RKbbPcOTOG6NErXz_ne" name="Страница — 1">
    <mxGraphModel dx="1500" dy="746" grid="1" gridSize="10" guides="1" tooltips="1" connect="1" arrows="1" fold="1" page="1" pageScale="1" pageWidth="1169" pageHeight="827" math="0" shadow="0">
      <root>
        <mxCell id="0" />
        <mxCell id="1" parent="0" />
        <mxCell id="n668jFtiuv9AjCpcZv87-3" value="" style="edgeStyle=orthogonalEdgeStyle;rounded=0;orthogonalLoop=1;jettySize=auto;html=1;" edge="1" parent="1">
          <mxGeometry relative="1" as="geometry">
            <mxPoint x="430" y="90" as="sourcePoint" />
            <mxPoint x="430" y="130" as="targetPoint" />
          </mxGeometry>
        </mxCell>
        <mxCell id="n668jFtiuv9AjCpcZv87-6" value="" style="edgeStyle=orthogonalEdgeStyle;rounded=0;orthogonalLoop=1;jettySize=auto;html=1;" edge="1" parent="1" source="n668jFtiuv9AjCpcZv87-4" target="n668jFtiuv9AjCpcZv87-5">
          <mxGeometry relative="1" as="geometry" />
        </mxCell>
        <mxCell id="n668jFtiuv9AjCpcZv87-4" value="&lt;div style=&quot;font-family: Consolas, &amp;quot;Courier New&amp;quot;, monospace; font-size: 14px; line-height: 19px;&quot;&gt;&lt;span style=&quot;background-color: rgb(255, 255, 255);&quot;&gt;string[] array = {&quot;Hello&quot;, &quot;2&quot;, &quot;world&quot;, &quot;:-)&quot;, &quot;1234&quot;, &quot;1567&quot;, &quot;-2&quot;, &quot;computer science&quot;, &quot;Russia&quot;, &quot;Denmark&quot;, &quot;Kazan&quot;}&lt;/span&gt;&lt;/div&gt;&lt;div style=&quot;font-family: Consolas, &amp;quot;Courier New&amp;quot;, monospace; font-size: 14px; line-height: 19px;&quot;&gt;&lt;span style=&quot;background-color: rgb(255, 255, 255);&quot;&gt;&lt;br&gt;&lt;/span&gt;&lt;/div&gt;&lt;div style=&quot;font-family: Consolas, &amp;quot;Courier New&amp;quot;, monospace; font-size: 14px; line-height: 19px;&quot;&gt;&lt;div style=&quot;line-height: 19px;&quot;&gt;&lt;div style=&quot;&quot;&gt;&lt;span style=&quot;background-color: rgb(255, 255, 255);&quot;&gt;int count =0;&lt;/span&gt;&lt;/div&gt;&lt;br&gt;&lt;/div&gt;&lt;/div&gt;" style="rounded=0;whiteSpace=wrap;html=1;" vertex="1" parent="1">
          <mxGeometry x="250" y="135" width="400" height="130" as="geometry" />
        </mxCell>
        <mxCell id="n668jFtiuv9AjCpcZv87-8" value="" style="edgeStyle=orthogonalEdgeStyle;rounded=0;orthogonalLoop=1;jettySize=auto;html=1;" edge="1" parent="1" source="n668jFtiuv9AjCpcZv87-5" target="n668jFtiuv9AjCpcZv87-7">
          <mxGeometry relative="1" as="geometry">
            <Array as="points">
              <mxPoint x="330" y="340" />
              <mxPoint x="330" y="340" />
            </Array>
          </mxGeometry>
        </mxCell>
        <mxCell id="n668jFtiuv9AjCpcZv87-22" value="" style="edgeStyle=orthogonalEdgeStyle;rounded=0;orthogonalLoop=1;jettySize=auto;html=1;" edge="1" parent="1" source="n668jFtiuv9AjCpcZv87-5" target="n668jFtiuv9AjCpcZv87-21">
          <mxGeometry relative="1" as="geometry" />
        </mxCell>
        <mxCell id="n668jFtiuv9AjCpcZv87-5" value="&amp;nbsp;int rows=0; rows&amp;lt;array.Length; rows++" style="shape=hexagon;perimeter=hexagonPerimeter2;whiteSpace=wrap;html=1;fixedSize=1;rounded=0;" vertex="1" parent="1">
          <mxGeometry x="390" y="300" width="120" height="80" as="geometry" />
        </mxCell>
        <mxCell id="n668jFtiuv9AjCpcZv87-10" value="" style="edgeStyle=orthogonalEdgeStyle;rounded=0;orthogonalLoop=1;jettySize=auto;html=1;" edge="1" parent="1" source="n668jFtiuv9AjCpcZv87-7">
          <mxGeometry relative="1" as="geometry">
            <mxPoint x="186" y="450" as="targetPoint" />
          </mxGeometry>
        </mxCell>
        <mxCell id="n668jFtiuv9AjCpcZv87-7" value="&lt;div style=&quot;font-family: Consolas, &amp;quot;Courier New&amp;quot;, monospace; font-size: 14px; line-height: 19px;&quot;&gt;&lt;div style=&quot;line-height: 19px;&quot;&gt;array[rows].Length&amp;lt;4&lt;br&gt;&lt;/div&gt;&lt;/div&gt;" style="rhombus;whiteSpace=wrap;html=1;rounded=0;" vertex="1" parent="1">
          <mxGeometry x="101" y="280" width="170" height="125" as="geometry" />
        </mxCell>
        <mxCell id="n668jFtiuv9AjCpcZv87-13" value="" style="edgeStyle=orthogonalEdgeStyle;rounded=0;orthogonalLoop=1;jettySize=auto;html=1;entryX=-0.1;entryY=0.08;entryDx=0;entryDy=0;entryPerimeter=0;" edge="1" parent="1" source="n668jFtiuv9AjCpcZv87-9" target="n668jFtiuv9AjCpcZv87-12">
          <mxGeometry relative="1" as="geometry">
            <Array as="points">
              <mxPoint x="40" y="490" />
              <mxPoint x="40" y="280" />
            </Array>
          </mxGeometry>
        </mxCell>
        <mxCell id="n668jFtiuv9AjCpcZv87-9" value="count++" style="whiteSpace=wrap;html=1;rounded=0;" vertex="1" parent="1">
          <mxGeometry x="126" y="450" width="120" height="60" as="geometry" />
        </mxCell>
        <mxCell id="n668jFtiuv9AjCpcZv87-11" value="Yes" style="text;html=1;strokeColor=none;fillColor=none;align=center;verticalAlign=middle;whiteSpace=wrap;rounded=0;" vertex="1" parent="1">
          <mxGeometry x="300" y="310" width="60" height="30" as="geometry" />
        </mxCell>
        <mxCell id="n668jFtiuv9AjCpcZv87-12" value="" style="shape=waypoint;sketch=0;size=6;pointerEvents=1;points=[];fillColor=default;resizable=0;rotatable=0;perimeter=centerPerimeter;snapToPoint=1;rounded=0;" vertex="1" parent="1">
          <mxGeometry x="440" y="270" width="20" height="20" as="geometry" />
        </mxCell>
        <mxCell id="n668jFtiuv9AjCpcZv87-17" value="" style="endArrow=classic;html=1;rounded=0;" edge="1" parent="1">
          <mxGeometry width="50" height="50" relative="1" as="geometry">
            <mxPoint x="101" y="340" as="sourcePoint" />
            <mxPoint x="71" y="280" as="targetPoint" />
            <Array as="points">
              <mxPoint x="71" y="340" />
            </Array>
          </mxGeometry>
        </mxCell>
        <mxCell id="n668jFtiuv9AjCpcZv87-18" value="Yes" style="text;html=1;strokeColor=none;fillColor=none;align=center;verticalAlign=middle;whiteSpace=wrap;rounded=0;" vertex="1" parent="1">
          <mxGeometry x="200" y="405" width="60" height="30" as="geometry" />
        </mxCell>
        <mxCell id="n668jFtiuv9AjCpcZv87-20" value="No" style="text;html=1;strokeColor=none;fillColor=none;align=center;verticalAlign=middle;whiteSpace=wrap;rounded=0;" vertex="1" parent="1">
          <mxGeometry x="66" y="310" width="60" height="30" as="geometry" />
        </mxCell>
        <mxCell id="n668jFtiuv9AjCpcZv87-24" value="" style="edgeStyle=orthogonalEdgeStyle;rounded=0;orthogonalLoop=1;jettySize=auto;html=1;" edge="1" parent="1" source="n668jFtiuv9AjCpcZv87-21" target="n668jFtiuv9AjCpcZv87-23">
          <mxGeometry relative="1" as="geometry" />
        </mxCell>
        <mxCell id="n668jFtiuv9AjCpcZv87-26" value="" style="edgeStyle=orthogonalEdgeStyle;rounded=0;orthogonalLoop=1;jettySize=auto;html=1;exitX=1;exitY=0.5;exitDx=0;exitDy=0;" edge="1" parent="1" source="n668jFtiuv9AjCpcZv87-23" target="n668jFtiuv9AjCpcZv87-25">
          <mxGeometry relative="1" as="geometry" />
        </mxCell>
        <mxCell id="n668jFtiuv9AjCpcZv87-36" value="" style="edgeStyle=orthogonalEdgeStyle;rounded=0;orthogonalLoop=1;jettySize=auto;html=1;" edge="1" parent="1" source="n668jFtiuv9AjCpcZv87-23" target="n668jFtiuv9AjCpcZv87-35">
          <mxGeometry relative="1" as="geometry" />
        </mxCell>
        <mxCell id="n668jFtiuv9AjCpcZv87-23" value="&lt;div style=&quot;font-family: Consolas, &amp;quot;Courier New&amp;quot;, monospace; font-size: 14px; line-height: 19px;&quot;&gt;&lt;span style=&quot;background-color: rgb(255, 255, 255);&quot;&gt;int rows = 0; rows &amp;lt; array.Length; rows++&lt;/span&gt;&lt;/div&gt;" style="shape=hexagon;perimeter=hexagonPerimeter2;whiteSpace=wrap;html=1;fixedSize=1;rounded=0;" vertex="1" parent="1">
          <mxGeometry x="590" y="440" width="230" height="80" as="geometry" />
        </mxCell>
        <mxCell id="n668jFtiuv9AjCpcZv87-29" value="" style="edgeStyle=orthogonalEdgeStyle;rounded=0;orthogonalLoop=1;jettySize=auto;html=1;exitX=0;exitY=0.5;exitDx=0;exitDy=0;" edge="1" parent="1" source="n668jFtiuv9AjCpcZv87-25" target="n668jFtiuv9AjCpcZv87-28">
          <mxGeometry relative="1" as="geometry" />
        </mxCell>
        <mxCell id="n668jFtiuv9AjCpcZv87-25" value="&lt;div style=&quot;font-family: Consolas, &amp;quot;Courier New&amp;quot;, monospace; font-size: 14px; line-height: 19px;&quot;&gt;&lt;span style=&quot;background-color: rgb(255, 255, 255);&quot;&gt;array[rows].Length&amp;lt;4&lt;/span&gt;&lt;/div&gt;" style="rhombus;whiteSpace=wrap;html=1;rounded=0;" vertex="1" parent="1">
          <mxGeometry x="820" y="550" width="190" height="120" as="geometry" />
        </mxCell>
        <mxCell id="n668jFtiuv9AjCpcZv87-27" value="Yes" style="text;html=1;strokeColor=none;fillColor=none;align=center;verticalAlign=middle;whiteSpace=wrap;rounded=0;" vertex="1" parent="1">
          <mxGeometry x="840" y="450" width="60" height="30" as="geometry" />
        </mxCell>
        <mxCell id="n668jFtiuv9AjCpcZv87-28" value="&lt;div style=&quot;font-family: Consolas, &amp;quot;Courier New&amp;quot;, monospace; font-size: 14px; line-height: 19px;&quot;&gt;&lt;div style=&quot;&quot;&gt;&lt;span style=&quot;background-color: rgb(255, 255, 255);&quot;&gt;&amp;nbsp;newarray[row]=array[rows];&lt;/span&gt;&lt;/div&gt;&lt;div style=&quot;&quot;&gt;&lt;span style=&quot;background-color: rgb(255, 255, 255);&quot;&gt;&amp;nbsp; &amp;nbsp; &amp;nbsp; &amp;nbsp; row++;&lt;/span&gt;&lt;/div&gt;&lt;/div&gt;" style="whiteSpace=wrap;html=1;rounded=0;" vertex="1" parent="1">
          <mxGeometry x="790" y="720" width="250" height="60" as="geometry" />
        </mxCell>
        <mxCell id="n668jFtiuv9AjCpcZv87-30" value="Yes" style="text;html=1;strokeColor=none;fillColor=none;align=center;verticalAlign=middle;whiteSpace=wrap;rounded=0;" vertex="1" parent="1">
          <mxGeometry x="750" y="640" width="60" height="30" as="geometry" />
        </mxCell>
        <mxCell id="n668jFtiuv9AjCpcZv87-32" value="" style="endArrow=classic;html=1;rounded=0;" edge="1" parent="1">
          <mxGeometry width="50" height="50" relative="1" as="geometry">
            <mxPoint x="1040" y="760" as="sourcePoint" />
            <mxPoint x="710" y="390" as="targetPoint" />
            <Array as="points">
              <mxPoint x="1080" y="760" />
              <mxPoint x="1080" y="390" />
            </Array>
          </mxGeometry>
        </mxCell>
        <mxCell id="n668jFtiuv9AjCpcZv87-33" value="" style="endArrow=classic;html=1;rounded=0;exitX=1;exitY=0.5;exitDx=0;exitDy=0;" edge="1" parent="1" source="n668jFtiuv9AjCpcZv87-25">
          <mxGeometry width="50" height="50" relative="1" as="geometry">
            <mxPoint x="970" y="590" as="sourcePoint" />
            <mxPoint x="1030" y="390" as="targetPoint" />
            <Array as="points">
              <mxPoint x="1030" y="610" />
            </Array>
          </mxGeometry>
        </mxCell>
        <mxCell id="n668jFtiuv9AjCpcZv87-34" value="No" style="text;html=1;strokeColor=none;fillColor=none;align=center;verticalAlign=middle;whiteSpace=wrap;rounded=0;" vertex="1" parent="1">
          <mxGeometry x="1010" y="550" width="60" height="30" as="geometry" />
        </mxCell>
        <mxCell id="n668jFtiuv9AjCpcZv87-38" value="" style="edgeStyle=orthogonalEdgeStyle;rounded=0;orthogonalLoop=1;jettySize=auto;html=1;exitX=0.5;exitY=0.75;exitDx=0;exitDy=0;exitPerimeter=0;" edge="1" parent="1" source="n668jFtiuv9AjCpcZv87-35" target="n668jFtiuv9AjCpcZv87-37">
          <mxGeometry relative="1" as="geometry" />
        </mxCell>
        <mxCell id="n668jFtiuv9AjCpcZv87-35" value="&lt;div style=&quot;font-family: Consolas, &amp;quot;Courier New&amp;quot;, monospace; font-size: 14px; line-height: 19px;&quot;&gt;&lt;span style=&quot;background-color: rgb(255, 255, 255);&quot;&gt;[&lt;/span&gt;&lt;/div&gt;" style="shape=document;whiteSpace=wrap;html=1;boundedLbl=1;rounded=0;" vertex="1" parent="1">
          <mxGeometry x="335" y="440" width="120" height="80" as="geometry" />
        </mxCell>
        <mxCell id="n668jFtiuv9AjCpcZv87-40" value="" style="edgeStyle=orthogonalEdgeStyle;rounded=0;orthogonalLoop=1;jettySize=auto;html=1;exitX=1;exitY=0.5;exitDx=0;exitDy=0;" edge="1" parent="1" source="n668jFtiuv9AjCpcZv87-37" target="n668jFtiuv9AjCpcZv87-39">
          <mxGeometry relative="1" as="geometry" />
        </mxCell>
        <mxCell id="n668jFtiuv9AjCpcZv87-44" value="" style="edgeStyle=orthogonalEdgeStyle;rounded=0;orthogonalLoop=1;jettySize=auto;html=1;" edge="1" parent="1" source="n668jFtiuv9AjCpcZv87-37" target="n668jFtiuv9AjCpcZv87-43">
          <mxGeometry relative="1" as="geometry" />
        </mxCell>
        <mxCell id="n668jFtiuv9AjCpcZv87-37" value="&lt;div style=&quot;font-family: Consolas, &amp;quot;Courier New&amp;quot;, monospace; font-size: 14px; line-height: 19px;&quot;&gt;&lt;span style=&quot;background-color: rgb(255, 255, 255);&quot;&gt;int rows = 0; rows &amp;lt; count-1; rows++&lt;/span&gt;&lt;/div&gt;" style="shape=hexagon;perimeter=hexagonPerimeter2;whiteSpace=wrap;html=1;fixedSize=1;rounded=0;" vertex="1" parent="1">
          <mxGeometry x="280" y="600" width="230" height="100" as="geometry" />
        </mxCell>
        <mxCell id="n668jFtiuv9AjCpcZv87-39" value="&lt;div style=&quot;font-family: Consolas, &amp;quot;Courier New&amp;quot;, monospace; font-size: 14px; line-height: 19px;&quot;&gt;&lt;span style=&quot;background-color: rgb(255, 255, 255);&quot;&gt;&#39;{newarray[rows]}&#39;;&lt;/span&gt;&lt;/div&gt;" style="shape=document;whiteSpace=wrap;html=1;boundedLbl=1;rounded=0;" vertex="1" parent="1">
          <mxGeometry x="210" y="737" width="370" height="90" as="geometry" />
        </mxCell>
        <mxCell id="n668jFtiuv9AjCpcZv87-41" value="" style="endArrow=classic;html=1;rounded=0;exitX=1;exitY=0.5;exitDx=0;exitDy=0;" edge="1" parent="1" source="n668jFtiuv9AjCpcZv87-39">
          <mxGeometry width="50" height="50" relative="1" as="geometry">
            <mxPoint x="580" y="820" as="sourcePoint" />
            <mxPoint x="400" y="560" as="targetPoint" />
            <Array as="points">
              <mxPoint x="620" y="780" />
              <mxPoint x="620" y="560" />
            </Array>
          </mxGeometry>
        </mxCell>
        <mxCell id="n668jFtiuv9AjCpcZv87-42" value="Yes" style="text;html=1;strokeColor=none;fillColor=none;align=center;verticalAlign=middle;whiteSpace=wrap;rounded=0;" vertex="1" parent="1">
          <mxGeometry x="540" y="690" width="60" height="30" as="geometry" />
        </mxCell>
        <mxCell id="n668jFtiuv9AjCpcZv87-47" value="" style="edgeStyle=orthogonalEdgeStyle;rounded=0;orthogonalLoop=1;jettySize=auto;html=1;exitX=0.5;exitY=0.611;exitDx=0;exitDy=0;exitPerimeter=0;" edge="1" parent="1" source="n668jFtiuv9AjCpcZv87-43" target="n668jFtiuv9AjCpcZv87-46">
          <mxGeometry relative="1" as="geometry" />
        </mxCell>
        <mxCell id="n668jFtiuv9AjCpcZv87-43" value="&lt;div style=&quot;font-family: Consolas, &amp;quot;Courier New&amp;quot;, monospace; font-size: 14px; line-height: 19px;&quot;&gt;&lt;span style=&quot;background-color: rgb(255, 255, 255);&quot;&gt;{newarray[count-1]}&#39;]&lt;/span&gt;&lt;/div&gt;" style="shape=document;whiteSpace=wrap;html=1;boundedLbl=1;rounded=0;" vertex="1" parent="1">
          <mxGeometry x="30" y="605" width="180" height="90" as="geometry" />
        </mxCell>
        <mxCell id="n668jFtiuv9AjCpcZv87-45" value="No" style="text;html=1;strokeColor=none;fillColor=none;align=center;verticalAlign=middle;whiteSpace=wrap;rounded=0;" vertex="1" parent="1">
          <mxGeometry x="200" y="610" width="60" height="30" as="geometry" />
        </mxCell>
        <mxCell id="n668jFtiuv9AjCpcZv87-46" value="Конец" style="ellipse;whiteSpace=wrap;html=1;rounded=0;" vertex="1" parent="1">
          <mxGeometry x="80" y="737" width="80" height="80" as="geometry" />
        </mxCell>
        <mxCell id="n668jFtiuv9AjCpcZv87-48" value="Начало" style="ellipse;whiteSpace=wrap;html=1;" vertex="1" parent="1">
          <mxGeometry x="370" y="10" width="120" height="80" as="geometry" />
        </mxCell>
        <mxCell id="n668jFtiuv9AjCpcZv87-49" value="No" style="text;html=1;strokeColor=none;fillColor=none;align=center;verticalAlign=middle;whiteSpace=wrap;rounded=0;" vertex="1" parent="1">
          <mxGeometry x="520" y="310" width="60" height="30" as="geometry" />
        </mxCell>
        <mxCell id="n668jFtiuv9AjCpcZv87-21" value="&lt;p style=&quot;font-family: Consolas, &amp;quot;Courier New&amp;quot;, monospace; font-size: 14px; line-height: 19px;&quot;&gt;string[] newarray = new string[count]&lt;br&gt;int row=0;&lt;/p&gt;&lt;div style=&quot;color: rgb(204, 204, 204); background-color: rgb(31, 31, 31); font-family: Consolas, &amp;quot;Courier New&amp;quot;, monospace; font-size: 14px; line-height: 19px;&quot;&gt;&lt;div style=&quot;line-height: 19px;&quot;&gt;&lt;div&gt;&lt;span style=&quot;color: #c586c0;&quot;&gt;&lt;/span&gt;&lt;/div&gt;&lt;/div&gt;&lt;/div&gt;" style="whiteSpace=wrap;html=1;rounded=0;shadow=1;fillColor=#FFFFFF;" vertex="1" parent="1">
          <mxGeometry x="590" y="310" width="230" height="60" as="geometry" />
        </mxCell>
      </root>
    </mxGraphModel>
  </diagram>
</mxfile>
